<svg width="32" height="32" viewBox="0 0 32 32" fill="none" xmlns="http://www.w3.org/2000/svg">
<defs>
<filter id="filter0_d_11_226" x="1" y="8.5" width="30" height="20.6923" filterUnits="userSpaceOnUse" color-interpolation-filters="sRGB">
<feFlood flood-opacity="0" result="BackgroundImageFix"/>
<feColorMatrix in="SourceAlpha" type="matrix" values="0 0 0 0 0 0 0 0 0 0 0 0 0 0 0 0 0 0 127 0" result="hardAlpha"/>
<feOffset dy="2"/>
<feGaussianBlur stdDeviation="2"/>
<feColorMatrix type="matrix" values="0 0 0 0 0 0 0 0 0 0 0 0 0 0 0 0 0 0 0.06 0"/>
<feBlend mode="normal" in2="BackgroundImageFix" result="effect1_dropShadow_11_226"/>
<feBlend mode="normal" in="SourceGraphic" in2="effect1_dropShadow_11_226" result="shape"/>
</filter>
<linearGradient id="paint0_linear_11_226" x1="22.5663" y1="10.2534" x2="15.5846" y2="23.4255" gradientUnits="userSpaceOnUse">
<stop stop-color="white"/>
<stop offset="1" stop-color="#FCFCFD" stop-opacity="0.75"/>
</linearGradient>
<linearGradient id="paint1_linear_11_226" x1="16" y1="0" x2="16" y2="32" gradientUnits="userSpaceOnUse">
<stop stop-color="#7EC9FF" stop-opacity="0.27"/>
<stop offset="1" stop-color="#147AC4" stop-opacity="0.42"/>
</linearGradient>
</defs>
<path fill-rule="evenodd" clip-rule="evenodd" d="M13.2971 0.687536C14.9824 -0.229179 17.0175 -0.229179 18.7028 0.687536L28.473 6.00205C30.2935 6.99226 31.4267 8.89867 31.4267 10.971V21.029C31.4267 23.1013 30.2935 25.0077 28.473 25.998L18.7028 31.3125C17.0175 32.2292 14.9824 32.2292 13.2971 31.3125L3.52687 25.998C1.70645 25.0077 0.573242 23.1013 0.573242 21.029L0.573242 10.971C0.573242 8.89867 1.70645 6.99226 3.52686 6.00205L13.2971 0.687536Z" fill="#37ABFF"/>
<g filter="url(#filter0_d_11_226)">
<path d="M8.36616 12.2489C8.77224 12.0989 9.64852 11.1055 10.5204 10.9555C11.3925 10.8055 11.8752 11.0846 12.1019 11.2507C12.6996 11.6881 13.0871 12.0404 13.9991 12.192C14.8778 12.338 15.1799 12.6238 15.4707 12.5865C15.7615 12.549 17.1831 11.3473 20.512 10.6804C21.6979 10.4432 23.6813 10.4056 24.8327 10.7773C25.8353 11.1012 26.0358 11.332 26.0634 11.5518C26.0806 11.6865 26.1347 12.1317 25.5122 12.3426C25.2214 12.4411 25.1703 12.2865 25.0075 12.4832C24.8447 12.6799 24.7811 12.8441 24.537 12.9566C24.2937 13.069 24.3067 12.9238 24.0159 13.2284C23.7251 13.533 23.46 13.6409 23.1864 13.6596C22.9127 13.6784 22.7291 13.5893 22.5397 13.7391C22.1645 14.0361 22.2545 14.2455 21.6776 14.4046C21.285 14.513 21.3097 14.6295 21.4164 14.6391C21.4164 14.6391 22.8202 14.736 24.1567 14.9201C25.3585 15.0857 26.9654 15.3747 26.9953 15.4171C27.0217 15.4541 26.9524 15.6186 26.3885 15.6465C25.824 15.6747 25.7516 15.8574 25.1659 15.8856C24.5801 15.9138 23.6696 15.9935 23.2424 16.1762C22.8148 16.3592 22.5284 16.5101 22.045 16.4717C21.575 16.4341 21.4732 16.6711 21.075 16.612C20.6944 16.5559 20.549 16.7247 20.3265 16.7247C20.1045 16.7247 19.9933 16.8699 19.694 16.8933C19.3946 16.9169 19.331 17.2483 19.0145 17.2679C18.9273 17.2735 19.5819 18.4218 20.455 20.4408C20.9249 21.5279 21.5665 21.5564 21.6862 21.997C21.7062 22.0721 21.6947 22.1609 21.6947 22.1609C21.6947 22.1609 21.9706 22.502 21.964 22.7137C21.9593 22.8501 21.8529 22.8501 21.8445 22.9064C21.8357 22.9625 21.9003 23.1219 21.8274 23.1732C21.7547 23.2249 21.1944 23.2062 20.5318 22.6671C19.8695 22.1279 19.6061 21.6406 19.0757 21.4096C18.5455 21.1785 15.9064 20.0225 15.3708 19.5475C14.8352 19.0728 13.5862 18.2895 13.0851 16.5857C12.8516 15.7919 12.7718 15.1417 11.8828 14.817C10.9935 14.4923 9.755 13.8483 9.08995 13.405C8.51547 13.0221 8.13069 13.0266 7.70307 13.0551C7.21255 13.0875 5.71087 13.4348 5.29623 13.5096C5.03089 13.5577 4.82088 13.4474 5.2294 13.2579C5.83962 12.9751 7.65216 12.5125 8.36616 12.2489Z" fill="url(#paint0_linear_11_226)"/>
</g>
<path d="M13.536 1.12676C15.0724 0.291079 16.9275 0.291079 18.4639 1.12676L28.2341 6.44127C29.8936 7.34396 30.9267 9.08185 30.9267 10.971V21.029C30.9267 22.9182 29.8936 24.656 28.2341 25.5587L18.4639 30.8732C16.9275 31.7089 15.0724 31.7089 13.536 30.8732L3.76578 25.5587C2.10628 24.656 1.07324 22.9182 1.07324 21.029V10.971C1.07324 9.08185 2.10628 7.34396 3.76578 6.44127L13.536 1.12676Z" stroke="url(#paint1_linear_11_226)"/>
</svg>
